<svg xmlns="http://www.w3.org/2000/svg" width="64" height="64" viewBox="0 0 64 64">
  <defs>
    <linearGradient id="g" x1="10" y1="8" x2="54" y2="58" gradientUnits="userSpaceOnUse">
      <stop stop-color="#2563eb"/>
      <stop offset="1" stop-color="#0f766e"/>
    </linearGradient>
  </defs>
  <rect width="64" height="64" rx="16" fill="url(#g)"/>
  <path d="M28 14h8a3 3 0 0 1 3 3v8h8a3 3 0 0 1 3 3v8a3 3 0 0 1-3 3h-8v8a3 3 0 0 1-3 3h-8a3 3 0 0 1-3-3v-8h-8a3 3 0 0 1-3-3v-8a3 3 0 0 1 3-3h8v-8a3 3 0 0 1 3-3Z" fill="#fff"/>
  <path d="M17 53h30" stroke="#dbeafe" stroke-width="5" stroke-linecap="round"/>
</svg>
