<svg xmlns="http://www.w3.org/2000/svg" width="512" height="512" viewBox="0 0 512 512" role="img" aria-labelledby="title desc">
  <title id="title">Prime Klinik logo</title>
  <desc id="desc">Blue medical finance mark with a clinic cross, ledger bars, and PK initials.</desc>
  <defs>
    <linearGradient id="bg" x1="96" y1="64" x2="416" y2="448" gradientUnits="userSpaceOnUse">
      <stop offset="0" stop-color="#2563eb"/>
      <stop offset="0.52" stop-color="#0891b2"/>
      <stop offset="1" stop-color="#0f766e"/>
    </linearGradient>
    <filter id="shadow" x="32" y="32" width="448" height="448" color-interpolation-filters="sRGB" filterUnits="userSpaceOnUse">
      <feDropShadow dx="0" dy="18" stdDeviation="24" flood-color="#0f172a" flood-opacity="0.24"/>
    </filter>
  </defs>
  <rect width="512" height="512" rx="124" fill="#eff6ff"/>
  <rect x="64" y="64" width="384" height="384" rx="96" fill="url(#bg)" filter="url(#shadow)"/>
  <path d="M256 126c71.797 0 130 58.203 130 130s-58.203 130-130 130-130-58.203-130-130 58.203-130 130-130Z" fill="#ffffff" opacity="0.14"/>
  <path d="M236 156h40c8.837 0 16 7.163 16 16v48h48c8.837 0 16 7.163 16 16v40c0 8.837-7.163 16-16 16h-48v48c0 8.837-7.163 16-16 16h-40c-8.837 0-16-7.163-16-16v-48h-48c-8.837 0-16-7.163-16-16v-40c0-8.837 7.163-16 16-16h48v-48c0-8.837 7.163-16 16-16Z" fill="#fff"/>
  <path d="M156 366h200" stroke="#fff" stroke-width="24" stroke-linecap="round" opacity="0.92"/>
  <path d="M176 336v-44m54 44v-78m54 78v-110m54 110v-62" stroke="#dbeafe" stroke-width="22" stroke-linecap="round"/>
  <text x="256" y="433" text-anchor="middle" font-family="Inter, Arial, sans-serif" font-size="42" font-weight="800" fill="#0f172a" letter-spacing="2">PK</text>
</svg>
