<svg xmlns="http://www.w3.org/2000/svg" width="1200" height="630" viewBox="0 0 1200 630">
  <defs>
    <linearGradient id="bg" x1="0" y1="0" x2="1200" y2="630" gradientUnits="userSpaceOnUse">
      <stop stop-color="#eff6ff"/>
      <stop offset="0.52" stop-color="#ecfeff"/>
      <stop offset="1" stop-color="#f0fdfa"/>
    </linearGradient>
    <linearGradient id="mark" x1="88" y1="92" x2="360" y2="364" gradientUnits="userSpaceOnUse">
      <stop stop-color="#2563eb"/>
      <stop offset="1" stop-color="#0f766e"/>
    </linearGradient>
  </defs>
  <rect width="1200" height="630" fill="url(#bg)"/>
  <circle cx="1000" cy="106" r="190" fill="#67e8f9" opacity="0.2"/>
  <circle cx="1030" cy="560" r="250" fill="#60a5fa" opacity="0.16"/>
  <rect x="84" y="92" width="300" height="300" rx="78" fill="url(#mark)"/>
  <path d="M217 154h34a13 13 0 0 1 13 13v53h53a13 13 0 0 1 13 13v34a13 13 0 0 1-13 13h-53v53a13 13 0 0 1-13 13h-34a13 13 0 0 1-13-13v-53h-53a13 13 0 0 1-13-13v-34a13 13 0 0 1 13-13h53v-53a13 13 0 0 1 13-13Z" fill="#fff"/>
  <path d="M145 362h178" stroke="#dbeafe" stroke-width="18" stroke-linecap="round"/>
  <text x="430" y="210" font-family="Inter, Arial, sans-serif" font-size="76" font-weight="850" fill="#0f172a">Prime Klinik</text>
  <text x="430" y="292" font-family="Inter, Arial, sans-serif" font-size="45" font-weight="700" fill="#0f766e">Clinic Operations Suite</text>
  <text x="430" y="370" font-family="Inter, Arial, sans-serif" font-size="32" fill="#475569">Dashboard keuangan klinik untuk pendapatan, hutang-piutang, payroll, pajak, aset, dan audit trail.</text>
  <rect x="84" y="468" width="1032" height="78" rx="28" fill="#fff" opacity="0.78"/>
  <text x="124" y="519" font-family="Inter, Arial, sans-serif" font-size="28" font-weight="700" fill="#1d4ed8">Local-first • Indonesian finance workflow • Executive reporting</text>
</svg>
